HIERARCHY
ROOT Hips
{
 OFFSET 0.000000 0.000000 0.000000
 CHANNELS 6 Xposition Yposition Zposition Yrotation Xrotation Zrotation
 JOINT Chest
 {
  OFFSET 0.000000 9.581000 -0.001100
  CHANNELS 3 Yrotation Xrotation Zrotation
  JOINT Chest2
  {
   OFFSET 0.000000 9.561100 0.002200
   CHANNELS 3 Yrotation Xrotation Zrotation
   JOINT Chest3
   {
    OFFSET 0.000000 9.521100 0.000000
    CHANNELS 3 Yrotation Xrotation Zrotation
    JOINT Chest4
    {
     OFFSET 0.000000 9.511400 0.000000
     CHANNELS 3 Yrotation Xrotation Zrotation
     JOINT Neck
     {
      OFFSET 0.000000 14.375100 0.000000
      CHANNELS 3 Yrotation Xrotation Zrotation
      JOINT Head
      {
       OFFSET 0.000000 8.901200 0.004600
       CHANNELS 3 Yrotation Xrotation Zrotation
       End Site
       {
        OFFSET 0.000000 16.962200 0.002400
       }
      }
     }
     JOINT RightCollar
     {
      OFFSET -2.920100 9.518800 0.000000
      CHANNELS 3 Yrotation Xrotation Zrotation
      JOINT RightShoulder
      {
       OFFSET -13.664500 0.000000 0.000000
       CHANNELS 3 Yrotation Xrotation Zrotation
       JOINT RightElbow
       {
        OFFSET 0.000000 -29.999200 0.000000
        CHANNELS 3 Yrotation Xrotation Zrotation
        JOINT RightWrist
        {
         OFFSET 0.000000 -24.253600 0.000000
         CHANNELS 3 Yrotation Xrotation Zrotation
         End Site
         {
          OFFSET 0.000000 -17.918900 0.000000
         }
        }
       }
      }
     }
     JOINT LeftCollar
     {
      OFFSET 2.920100 9.518800 0.000000
      CHANNELS 3 Yrotation Xrotation Zrotation
      JOINT LeftShoulder
      {
       OFFSET 13.664500 0.000000 0.000000
       CHANNELS 3 Yrotation Xrotation Zrotation
       JOINT LeftElbow
       {
        OFFSET 0.000000 -29.999200 0.000000
        CHANNELS 3 Yrotation Xrotation Zrotation
        JOINT LeftWrist
        {
         OFFSET 0.000000 -24.253600 0.000000
         CHANNELS 3 Yrotation Xrotation Zrotation
         End Site
         {
          OFFSET 0.000000 -17.918900 0.000000
         }
        }
       }
      }
     }
    }
   }
  }
 }
 JOINT RightHip
 {
  OFFSET -7.797300 0.005300 0.000500
  CHANNELS 3 Yrotation Xrotation Zrotation
  JOINT RightKnee
  {
   OFFSET 0.000000 -40.663400 -0.000500
   CHANNELS 3 Yrotation Xrotation Zrotation
   JOINT RightAnkle
   {
    OFFSET 0.000000 -39.523700 -0.000900
    CHANNELS 3 Yrotation Xrotation Zrotation
    JOINT RightToe
    {
     OFFSET 0.000000 -6.418000 14.485300
     CHANNELS 3 Yrotation Xrotation Zrotation
     End Site
     {
      OFFSET 0.000000 -1.465200 6.326400
     }
    }
   }
  }
 }
 JOINT LeftHip
 {
  OFFSET 7.797300 0.005300 0.000500
  CHANNELS 3 Yrotation Xrotation Zrotation
  JOINT LeftKnee
  {
   OFFSET 0.000000 -40.663400 -0.000500
   CHANNELS 3 Yrotation Xrotation Zrotation
   JOINT LeftAnkle
   {
    OFFSET 0.000000 -39.523700 -0.000900
    CHANNELS 3 Yrotation Xrotation Zrotation
    JOINT LeftToe
    {
     OFFSET 0.000000 -6.418000 14.485300
     CHANNELS 3 Yrotation Xrotation Zrotation
     End Site
     {
      OFFSET 0.000000 -1.465200 6.326400
     }
    }
   }
  }
 }
}
MOTION
Frames: 13
Frame Time: 0.008333
0.000000 86.422400 0.000000 0.000000 -5.767877 0.000000 0.000000 11.653817 0.000000 0.000000 -5.885947 0.000000 0.000000 -0.000000 0.000000 0.000000 -0.000000 0.000000 0.000000 12.528835 0.000000 0.000000 0.711642 0.000000 0.000000 -0.000000 0.000000 0.000000 0.000000 -90.000000 0.000000 -2.309062 0.000000 0.000000 2.309062 0.000000 0.000000 -0.000000 0.000000 0.000000 -0.000000 90.000000 0.000000 -2.309062 0.000000 0.000000 2.309062 0.000000 0.000000 8.520406 0.000000 0.000000 1.905762 0.000000 -0.000000 -4.658285 0.000000 0.000000 -0.000000 0.000000 0.000000 8.520406 0.000000 0.000000 1.905762 0.000000 -0.000000 -4.658285 0.000000 0.000000 -0.000000 0.000000
-1.858626 126.262299 20.964609 179.532075 -24.896192 -2.600381 -3.167534 21.025679 1.137147 -0.447921 2.796182 0.226183 -0.701236 4.537646 0.329627 -2.708974 17.931669 1.037621 3.673979 13.807333 -1.690737 4.229043 -11.080460 -2.713363 -3.619044 -5.772528 -2.040793 -1.096763 -10.620016 -3.299200 135.258618 -55.410045 -126.075870 1.471172 12.491919 -14.028002 -6.800920 -5.185042 0.978060 -3.678266 -16.154642 9.307177 -178.810915 -65.533327 168.901162 -26.067736 -5.111356 25.604182 -12.502918 -56.211434 3.753867 -118.034220 74.421551 -116.887089 3.016945 -17.626543 -1.427795 0.001945 -0.001526 0.000862 -10.592687 -57.635020 -4.748135 37.220168 67.129445 32.065859 -3.829448 36.317155 -3.494976 -0.000239 -0.007815 -0.000106
-1.858691 126.259272 20.967487 179.517245 -24.858978 -2.587622 -3.166071 21.000770 1.139787 -0.451889 2.788160 0.226720 -0.698681 4.539020 0.329957 -2.713667 17.924197 1.040231 3.695982 13.792342 -1.685285 4.329456 -11.170344 -2.630919 -3.610311 -5.781303 -2.039105 -1.115511 -10.630487 -3.285139 135.107900 -55.450100 -125.981650 1.471711 12.464887 -14.027026 -6.806756 -5.205952 0.972167 -3.743444 -16.257896 9.302451 -178.725866 -65.761618 168.735526 -26.010484 -5.370642 25.705239 -12.496333 -56.251061 3.756019 -118.100119 74.432774 -116.946704 3.004115 -17.637608 -1.433803 0.002266 0.002046 0.001004 -10.596643 -57.672684 -4.734191 37.219643 67.133896 32.058399 -3.829581 36.299290 -3.490543 -0.000191 -0.004826 -0.000085
-1.857968 126.257556 20.967364 179.508202 -24.841083 -2.581432 -3.173912 20.990554 1.143163 -0.444694 2.781605 0.222220 -0.715865 4.528826 0.350136 -2.714624 17.920953 1.028002 3.746183 13.777587 -1.638044 4.369771 -11.174766 -2.598962 -3.593544 -5.776441 -2.051270 -1.108974 -10.648701 -3.271453 134.968906 -55.487332 -125.881609 1.469315 12.475003 -14.032600 -6.830021 -5.238710 0.976363 -3.814214 -16.361008 9.292270 -178.672895 -66.074980 168.596254 -25.989936 -5.573649 25.726611 -12.490644 -56.269884 3.754134 -118.132232 74.438586 -116.975705 3.002535 -17.639676 -1.439354 -0.001443 0.002632 -0.000639 -10.598484 -57.693420 -4.721494 37.217557 67.142429 32.050958 -3.828619 36.291377 -3.488488 0.000882 -0.004230 0.000391
-1.857369 126.256021 20.966927 179.501237 -24.827062 -2.575405 -3.184289 20.980480 1.152512 -0.436737 2.777974 0.210830 -0.714723 4.523211 0.351205 -2.724162 17.888998 1.058986 3.786136 13.803147 -1.604404 4.386525 -11.147664 -2.576524 -3.577027 -5.747707 -2.085668 -1.082319 -10.672315 -3.258962 134.770051 -55.530720 -125.741191 1.468110 12.500796 -14.009435 -6.889557 -5.287783 0.958645 -3.897073 -16.440622 9.295514 -178.644467 -66.460773 168.496082 -26.027860 -5.664780 25.617438 -12.483764 -56.286949 3.753990 -118.166141 74.439164 -117.006328 2.996461 -17.642468 -1.441487 -0.001752 0.000460 -0.000776 -10.593317 -57.709604 -4.720341 37.211985 67.154274 32.044958 -3.821093 36.271774 -3.479392 0.000780 -0.002584 0.000345
-1.856457 126.254978 20.965843 179.500418 -24.821171 -2.574212 -3.187213 20.973348 1.157065 -0.439846 2.771960 0.217942 -0.712651 4.522962 0.344920 -2.725322 17.889089 1.056180 3.814446 13.813129 -1.546148 4.398888 -11.101371 -2.532950 -3.546479 -5.771608 -2.032746 -1.053802 -10.683920 -3.296465 134.496930 -55.578235 -125.541886 1.476691 12.554632 -13.937776 -6.945092 -5.334933 0.964213 -4.048871 -16.556493 9.324719 -178.540053 -66.895873 168.354515 -26.130597 -5.592948 25.349106 -12.491428 -56.290299 3.763496 -118.228172 74.444339 -117.067520 2.986238 -17.658857 -1.449574 0.001397 0.000364 0.000619 -10.593199 -57.715675 -4.720307 37.199152 67.165218 32.037319 -3.817046 36.247126 -3.478334 0.002198 -0.002259 0.000974
-1.856478 126.254103 20.964892 179.493175 -24.820247 -2.565359 -3.186209 20.949663 1.165068 -0.439645 2.753263 0.222281 -0.714029 4.538040 0.337047 -2.728266 17.874002 1.061669 3.834419 13.869475 -1.495154 4.400495 -11.026370 -2.480000 -3.514152 -5.758380 -2.003987 -1.011655 -10.716742 -3.325495 134.146803 -55.633135 -125.277958 1.501044 12.642250 -13.812081 -6.994440 -5.333177 0.943308 -4.251592 -16.695119 9.368879 -178.264964 -67.354028 168.084219 -26.291718 -5.327845 24.917678 -12.482354 -56.290815 3.760152 -118.243483 74.446025 -117.084534 2.980783 -17.664011 -1.450207 0.002334 0.000250 0.001034 -10.572277 -57.715074 -4.734150 37.187300 67.173680 32.017395 -3.795174 36.232243 -3.455619 -0.004395 0.002776 -0.001947
-1.856374 126.253246 20.964644 179.484572 -24.821497 -2.557368 -3.180260 20.939777 1.164906 -0.441826 2.718488 0.232104 -0.710617 4.491084 0.348174 -2.727397 17.851875 1.069588 3.832208 14.013321 -1.449572 4.395530 -10.920557 -2.420573 -3.495256 -5.671883 -1.998860 -0.953908 -10.764873 -3.352051 133.726603 -55.694746 -124.950643 1.535376 12.749565 -13.645616 -7.032017 -5.242808 0.893873 -4.516091 -16.856692 9.428821 -177.788828 -67.816483 167.657797 -26.491248 -4.870268 24.336125 -12.475039 -56.288345 3.759267 -118.250110 74.446682 -117.094817 2.980090 -17.670010 -1.452814 0.002625 -0.000007 0.001163 -10.542856 -57.710348 -4.754685 37.175066 67.171595 32.010367 -3.791937 36.227056 -3.450516 -0.005956 0.005002 -0.002639
-1.856499 126.252646 20.964605 179.475555 -24.828397 -2.548442 -3.176860 20.914888 1.170555 -0.445509 2.704130 0.231935 -0.709662 4.477812 0.349074 -2.726200 17.810239 1.081429 3.838843 14.163990 -1.395777 4.390795 -10.783144 -2.360226 -3.480922 -5.587346 -2.008481 -0.922917 -10.790450 -3.367525 133.369405 -55.748876 -124.658291 1.569037 12.851499 -13.468151 -7.062423 -5.165523 0.850283 -4.810941 -17.019455 9.508285 -177.116381 -68.275856 167.078513 -26.704594 -4.263684 23.647673 -12.472381 -56.279252 3.761997 -118.251968 74.444972 -117.104052 2.960953 -17.679563 -1.449379 -0.001290 0.000354 -0.000572 -10.518564 -57.705856 -4.771373 37.176895 67.173231 32.013995 -3.788686 36.229993 -3.449393 -0.007422 0.005429 -0.003289
-1.856313 126.252136 20.965214 179.468464 -24.837789 -2.542770 -3.182509 20.885864 1.173303 -0.439155 2.718359 0.228042 -0.709680 4.455679 0.353614 -2.729391 17.772482 1.090414 3.842644 14.279528 -1.376385 4.395180 -10.563446 -2.268614 -3.460518 -5.520468 -2.010624 -0.830029 -10.887423 -3.372241 132.844010 -55.849588 -124.220624 1.594801 12.927079 -13.321286 -7.192533 -5.143465 0.799340 -5.030022 -17.133615 9.622148 -176.283015 -68.730032 166.370765 -26.905236 -3.591394 22.921294 -12.491730 -56.269162 3.780611 -118.257739 74.437821 -117.128180 2.965102 -17.687954 -1.450891 -0.001062 -0.000856 -0.000470 -10.501944 -57.697004 -4.778834 37.205523 67.164829 32.047061 -3.814824 36.237351 -3.466752 -0.002487 0.005852 -0.001102
-1.856513 126.251823 20.966153 179.462496 -24.850951 -2.535849 -3.183707 20.858316 1.180786 -0.437458 2.734253 0.220581 -0.709181 4.464426 0.349652 -2.732126 17.746380 1.096658 3.862493 14.461601 -1.305311 4.397431 -10.370450 -2.245928 -3.423417 -5.506789 -1.967297 -0.761874 -10.982527 -3.413493 132.345390 -55.973029 -123.781748 1.609740 12.969128 -13.229075 -7.268514 -5.127743 0.775784 -5.306884 -17.270044 9.732048 -175.378996 -69.184804 165.604683 -27.066184 -2.954408 22.235856 -12.487983 -56.255583 3.773719 -118.266648 74.431875 -117.144908 2.978350 -17.694722 -1.454339 -0.001159 -0.001331 -0.000514 -10.483498 -57.685950 -4.791919 37.237026 67.160640 32.076998 -3.826823 36.241719 -3.470008 -0.003183 0.007614 -0.001411
-1.856071 126.251557 20.967855 179.460038 -24.864071 -2.534947 -3.192704 20.831306 1.186519 -0.437318 2.726252 0.220893 -0.709335 4.452263 0.350267 -2.736591 17.717533 1.111571 3.871976 14.739057 -1.270215 4.395233 -10.161585 -2.238929 -3.372126 -5.448768 -1.900830 -0.731799 -11.053916 -3.508714 131.954953 -56.091319 -123.415757 1.615445 12.984405 -13.185180 -7.338567 -5.059141 0.728611 -5.574653 -17.399183 9.840576 -174.525786 -69.652693 164.880694 -27.173258 -2.441653 21.649227 -12.492385 -56.240397 3.773923 -118.266128 74.431810 -117.151041 2.983726 -17.696591 -1.458345 -0.001107 -0.002219 -0.000491 -10.482155 -57.677459 -4.793903 37.257036 67.158476 32.107566 -3.847759 36.248437 -3.494205 0.001823 0.004785 0.000808
-1.856216 126.251655 20.969493 179.460505 -24.881143 -2.532577 -3.199863 20.809833 1.194388 -0.437825 2.720533 0.221544 -0.710296 4.443065 0.351362 -2.746451 17.701428 1.130228 3.864598 14.984624 -1.266484 4.385952 -9.921536 -2.226924 -3.347404 -5.379489 -1.864746 -0.701040 -11.151303 -3.572975 131.632479 -56.204489 -123.100749 1.618473 12.984104 -13.174453 -7.402981 -4.997346 0.681329 -5.824347 -17.524461 9.939032 -173.835939 -70.136274 164.292119 -27.236238 -2.094887 21.187202 -12.493124 -56.221177 3.769374 -118.263149 74.423417 -117.156125 2.988518 -17.703715 -1.460553 -0.000249 -0.002295 -0.000111 -10.475652 -57.669076 -4.803949 37.266137 67.161965 32.124118 -3.854288 36.269103 -3.511858 0.003066 0.002360 0.001359
